<!DOCTYPE svg PUBLIC "-//W3C//DTD SVG 1.1//EN" "http://www.w3.org/Graphics/SVG/1.1/DTD/svg11.dtd">
<!-- Uploaded to: SVG Repo, www.svgrepo.com, Transformed by: SVG Repo Mixer Tools -->
<svg fill="#30B9B2" height="800px" width="800px" version="1.1" id="Layer_1" xmlns="http://www.w3.org/2000/svg" xmlns:xlink="http://www.w3.org/1999/xlink" viewBox="0 0 512 512" xml:space="preserve" stroke="#30B9B2">
<g id="SVGRepo_bgCarrier" stroke-width="0"/>
<g id="SVGRepo_tracerCarrier" stroke-linecap="round" stroke-linejoin="round"/>
<g id="SVGRepo_iconCarrier"> <g> <g> <polygon points="351.363,256.662 351.363,400.352 401.475,407.623 401.475,263.933 "/> </g> </g> <g> <g> <path d="M271.26,0v481.481L481.579,512V30.519L271.26,0z M431.994,442.891l-111.152-16.128V221.394l111.152,16.128V442.891z M431.994,216.92l-111.152-16.127v-30.847l111.152,16.136V216.92z M431.994,166.373l-111.152-16.127v-30.847l111.152,16.136 V166.373z M431.995,116.084L431.995,116.084L320.843,99.956V69.11l111.152,16.136V116.084z"/> </g> </g> <g> <g> <path d="M30.421,30.519V512l210.318-30.519V0L30.421,30.519z M191.158,426.762L80.006,442.891V237.523l111.152-16.128V426.762z M191.158,200.792L80.006,216.92v-30.838l111.152-16.136V200.792z M191.158,150.247L80.006,166.373v-30.837L191.158,119.4V150.247 z M191.158,99.956L80.006,116.084V85.246L191.158,69.11V99.956z"/> </g> </g> <g> <g> <polygon points="110.525,263.933 110.525,407.623 160.637,400.352 160.637,256.662 "/> </g> </g> </g>
</svg>